<svg width="50" height="51" viewBox="0 0 50 51" fill="none" xmlns="http://www.w3.org/2000/svg">
<circle cx="25" cy="25.4153" r="25" fill="#C0482F"/>
<path d="M26.1429 20.0816C26.1429 19.7898 25.855 19.5532 25.5 19.5532C25.145 19.5532 24.8571 19.7898 24.8571 20.0816L24.8571 25.1897H18.6429C18.2878 25.1897 18 25.4263 18 25.7181C18 26.0099 18.2878 26.2465 18.6429 26.2465H24.8571V31.3546C24.8571 31.6464 25.145 31.883 25.5 31.883C25.855 31.883 26.1429 31.6464 26.1429 31.3546V26.2465H32.3571C32.7122 26.2465 33 26.0099 33 25.7181C33 25.4263 32.7122 25.1897 32.3571 25.1897H26.1429L26.1429 20.0816Z" fill="#FAFAFA"/>
</svg>
