<svg width="27" height="30" viewBox="0 0 27 30" fill="none" xmlns="http://www.w3.org/2000/svg">
<path d="M18.3784 12.9016V7.72135M7.8317 12.9016V7.72135M7.8317 7.72135V6.28961C7.8317 3.36824 10.1927 1 13.1051 1C16.0175 1 18.3784 3.36824 18.3784 6.28961V7.72135M7.8317 7.72135C8.86886 7.61201 10.1905 7.61201 12.0345 7.61201H14.1757C16.0196 7.61201 17.3413 7.61201 18.3784 7.72135M7.8317 7.72135C7.03799 7.80503 6.4109 7.95274 5.84385 8.21349C4.69123 8.7435 3.71547 9.59572 3.03354 10.668C2.25968 11.8848 2.03578 13.5018 1.58799 16.7359C1.01296 20.8888 0.725449 22.9653 1.35763 24.578C1.91262 25.9938 2.93736 27.1743 4.25904 27.9205C5.76456 28.7705 7.85452 28.7705 12.0345 28.7705H14.1757C18.3556 28.7705 20.4456 28.7705 21.9511 27.9205C23.2728 27.1743 24.2975 25.9938 24.8525 24.578C25.4847 22.9653 25.1972 20.8888 24.6222 16.7359C24.1744 13.5018 23.9505 11.8848 23.1766 10.668C22.4947 9.59572 21.5189 8.7435 20.3663 8.21349C19.7992 7.95274 19.1722 7.80503 18.3784 7.72135" stroke="#572921" stroke-width="2" stroke-linecap="round"/>
</svg>
