<svg width="66" height="66" viewBox="0 0 66 66" fill="none" xmlns="http://www.w3.org/2000/svg">
<circle cx="33" cy="33" r="33" fill="#D9D9D9" fill-opacity="0.75"/>
<path d="M31.0372 25.623C30.6449 25.2342 30.0118 25.237 29.623 25.6293C29.2342 26.0216 29.237 26.6547 29.6293 27.0435L31.9799 29.3733C32.9339 30.3188 33.5883 30.9695 34.0311 31.5209C34.4613 32.0565 34.6088 32.4005 34.6481 32.7086C34.6727 32.902 34.6727 33.0978 34.6481 33.2913C34.6088 33.5994 34.4613 33.9434 34.0311 34.479C33.5883 35.0303 32.9339 35.6811 31.9799 36.6266L29.6293 38.9563C29.237 39.3451 29.2342 39.9783 29.623 40.3705C30.0118 40.7628 30.6449 40.7656 31.0372 40.3768L33.4302 38.0051C34.3315 37.1119 35.0681 36.3818 35.5905 35.7313C36.1337 35.0549 36.527 34.3683 36.632 33.5441C36.6781 33.1828 36.6781 32.8171 36.632 32.4557C36.527 31.6316 36.1337 30.945 35.5905 30.2685C35.0681 29.618 34.3315 28.888 33.4302 27.9947L31.0372 25.623Z" fill="black"/>
</svg>
