<svg width="131" height="131" viewBox="0 0 131 131" fill="none" xmlns="http://www.w3.org/2000/svg">
<g filter="url(#filter0_d_299_85)">
<circle cx="65.5" cy="65.5" r="44.5" fill="white"/>
<circle cx="65.5" cy="65.5" r="43.5" stroke="white" stroke-width="2"/>
</g>
<path d="M74.9514 62.9852C75.4495 62.4827 75.4459 61.6714 74.9433 61.1733C74.4407 60.6752 73.6295 60.6788 73.1313 61.1814L70.1463 64.1931C68.9349 65.4154 68.1012 66.2539 67.3947 66.8212C66.7085 67.3723 66.2677 67.5614 65.873 67.6117C65.6251 67.6433 65.3743 67.6433 65.1264 67.6117C64.7316 67.5614 64.2909 67.3723 63.6046 66.8212C62.8982 66.2539 62.0645 65.4154 60.853 64.1931L57.868 61.1814C57.3699 60.6788 56.5587 60.6752 56.0561 61.1733C55.5535 61.6714 55.5499 62.4827 56.048 62.9852L59.0868 66.0512C60.2312 67.206 61.1666 68.1498 62.0001 68.8192C62.8668 69.5152 63.7465 70.019 64.8024 70.1536C65.2654 70.2127 65.734 70.2126 66.197 70.1536C67.2529 70.019 68.1326 69.5152 68.9993 68.8192C69.8327 68.1498 70.7681 67.206 71.9126 66.0512L74.9514 62.9852Z" fill="#29180E"/>
<defs>
<filter id="filter0_d_299_85" x="0.5" y="0.5" width="130" height="130" filterUnits="userSpaceOnUse" color-interpolation-filters="sRGB">
<feFlood flood-opacity="0" result="BackgroundImageFix"/>
<feColorMatrix in="SourceAlpha" type="matrix" values="0 0 0 0 0 0 0 0 0 0 0 0 0 0 0 0 0 0 127 0" result="hardAlpha"/>
<feOffset/>
<feGaussianBlur stdDeviation="10.25"/>
<feComposite in2="hardAlpha" operator="out"/>
<feColorMatrix type="matrix" values="0 0 0 0 0 0 0 0 0 0 0 0 0 0 0 0 0 0 0.25 0"/>
<feBlend mode="normal" in2="BackgroundImageFix" result="effect1_dropShadow_299_85"/>
<feBlend mode="normal" in="SourceGraphic" in2="effect1_dropShadow_299_85" result="shape"/>
</filter>
</defs>
</svg>
